<svg width="1417" height="845" viewBox="0 0 1417 845" fill="none" xmlns="http://www.w3.org/2000/svg">
<g opacity="0.1" clip-path="url(#clip0_550_227)">
<path d="M1382.34 309.418L822.98 530.432L824.501 534.281L1383.86 313.267L1382.34 309.418Z" fill="white"/>
<path d="M592.441 6.52489L590.928 10.377L1372.27 317.369L1373.78 313.517L592.441 6.52489Z" fill="white"/>
<path d="M594.961 6.96385L44.7109 196.645L46.0597 200.558L596.31 10.8766L594.961 6.96385Z" fill="white"/>
<path d="M822.892 534.337L820.35 533.181L32.207 195.277L33.8247 191.495L822.009 529.4L824.594 530.576L822.892 534.337Z" fill="white"/>
<path d="M595.368 18.2777L591.25 17.9626C591.481 14.8533 591.565 10.7776 591.628 7.47926C591.775 0.714446 591.775 0.168219 593.792 0.000148814C593.981 -0.0208599 595.704 -0.104895 596.103 1.97497L592.048 2.75229C592.195 3.34054 592.931 4.2019 594.044 4.13887C595.179 4.09685 595.851 3.19348 595.956 2.58422C595.872 3.06742 595.83 5.46242 595.788 7.5843C595.725 10.9247 595.641 15.0634 595.389 18.2777H595.368ZM594.065 2.35313L592.027 2.71028C592.027 2.71028 592.027 2.73128 592.027 2.75229L594.065 2.37414V2.35313Z" fill="white"/>
<path d="M1400.76 362.803L851.914 581.213L853.444 585.059L1402.29 366.648L1400.76 362.803Z" fill="white"/>
<path d="M854.787 583.005L850.648 583.046L851.786 697.412L855.925 697.371L854.787 583.005Z" fill="white"/>
<path d="M1400.78 364.547L1398.79 584.836L1402.92 584.873L1404.92 364.585L1400.78 364.547Z" fill="white"/>
<path d="M562.219 27.6524L57.1543 201.757L58.5031 205.67L563.568 31.5652L562.219 27.6524Z" fill="white"/>
<path d="M3.01017 238.954L1.36914 242.753L792.817 584.588L794.458 580.788L3.01017 238.954Z" fill="white"/>
<path d="M15.4842 246.871L11.3457 246.912L12.3012 342.959L16.4398 342.918L15.4842 246.871Z" fill="white"/>
<path d="M795.748 582.647L791.609 582.688L792.747 697.054L796.886 697.013L795.748 582.647Z" fill="white"/>
<path d="M1411.24 346.811L849.066 570.072L850.594 573.919L1412.77 350.657L1411.24 346.811Z" fill="white"/>
<path d="M835.161 541.732L833.648 537.908L1381.03 319.985L1391.91 315.636L1393.45 319.48L1382.56 323.829L835.161 541.732Z" fill="white"/>
<path d="M24.0277 197.106L22.3906 200.907L813.733 541.713L815.37 537.912L24.0277 197.106Z" fill="white"/>
<path d="M4.41556 230.051L2.78516 233.855L793.08 572.576L794.711 568.772L4.41556 230.051Z" fill="white"/>
<path d="M594.67 0.145866L593.16 3.99951L1385.84 314.487L1387.35 310.633L594.67 0.145866Z" fill="white"/>
<path d="M1412.62 364.182L1410.27 577.744L1414.41 577.79L1416.76 364.228L1412.62 364.182Z" fill="white"/>
<path d="M32.1847 196.495L31.1133 192.503L35.294 191.368L593.328 0.125977L594.673 4.0336L36.5125 195.318L32.1847 196.495Z" fill="white"/>
<path d="M4.30258 242.256L0.164062 242.297L1.03768 330.109L5.1762 330.068L4.30258 242.256Z" fill="white"/>
<path d="M1412.94 358.56L1400.82 362.743L1402.18 366.655L1414.29 362.472L1412.94 358.56Z" fill="white"/>
<path d="M1361.68 322.274L1356.96 320.195L592.555 19.3705L594.067 15.5259L1358.55 316.392L1363.34 318.493L1361.68 322.274Z" fill="white"/>
<path d="M592.59 16.2231L562.164 27.708L563.626 31.5801L594.052 20.0951L592.59 16.2231Z" fill="white"/>
<path d="M1371.88 603.332L842.539 825.087L844.138 828.905L1373.48 607.15L1371.88 603.332Z" fill="white"/>
<path d="M47.1399 479.065L45.4883 482.859L183.664 542.997L185.316 539.202L47.1399 479.065Z" fill="white"/>
<path d="M224.739 557.309L223.012 561.07L429.159 655.756L430.886 651.995L224.739 557.309Z" fill="white"/>
<path d="M471.35 670.91L469.641 674.68L803.411 826.014L805.12 822.245L471.35 670.91Z" fill="white"/>
<path d="M1398.69 583.024L854.137 808.474L855.72 812.298L1400.27 586.848L1398.69 583.024Z" fill="white"/>
<path d="M855.838 697.486L851.699 697.527L852.823 810.485L856.962 810.444L855.838 697.486Z" fill="white"/>
<path d="M13.1937 313.304C1.61787 308.051 0.420368 301.602 0.735499 298.219L4.85321 298.597C4.49606 302.484 8.15158 306.455 14.9164 309.522L13.2147 313.282L13.1937 313.304Z" fill="white"/>
<path d="M711.658 624.367L709.947 628.136L793.587 666.094L795.297 662.325L711.658 624.367Z" fill="white"/>
<path d="M570.01 560.066L568.258 563.815L624.994 590.332L626.746 586.583L570.01 560.066Z" fill="white"/>
<path d="M558.845 554.875L557.094 558.625L568.286 563.853L570.038 560.104L558.845 554.875Z" fill="white"/>
<path d="M316.679 445.117L314.969 448.886L478.135 522.936L479.846 519.167L316.679 445.117Z" fill="white"/>
<path d="M303.262 438.992L301.551 442.76L315.189 448.955L316.901 445.187L303.262 438.992Z" fill="white"/>
<path d="M226.074 408.789L220.003 405.784L181.284 388.2L159.141 378.557L160.8 374.775L182.944 384.418L221.789 402.045L227.902 405.07L226.074 408.789Z" fill="white"/>
<path d="M14.8715 309.509L13.2285 313.307L79.5211 341.981L81.1641 338.182L14.8715 309.509Z" fill="white"/>
<path d="M824.155 671.692C812.957 671.692 801.823 669.801 793.566 666.061L795.268 662.301C810.562 669.255 836.319 669.402 852.685 662.637L854.261 666.461C845.794 669.969 834.933 671.713 824.134 671.713L824.155 671.692Z" fill="white"/>
<path d="M1401.5 437.121L852.699 662.646L854.272 666.474L1403.07 440.949L1401.5 437.121Z" fill="white"/>
<path d="M826.253 843.774L824.131 840.224C833.753 834.488 846.568 824.488 853.039 809.551L856.82 811.189C849.888 827.135 836.358 837.702 826.232 843.753L826.253 843.774Z" fill="white"/>
<path d="M978.379 780.391L976.152 776.903C987.014 769.991 997.287 759.046 1005.04 746.104L1008.59 748.226C1000.5 761.735 989.766 773.143 978.379 780.391Z" fill="white"/>
<path d="M1129.54 716.923L1127.31 713.436C1138.09 706.587 1146.41 697.679 1154.26 684.57L1157.81 686.692C1149.62 700.389 1140.9 709.696 1129.54 716.923Z" fill="white"/>
<path d="M1259.03 662.364L1256.83 658.877C1268.66 651.398 1277.27 642.721 1283.97 631.586L1287.52 633.708C1280.48 645.41 1271.43 654.528 1259.06 662.364H1259.03Z" fill="white"/>
<path d="M1384.71 609.611L1382.48 606.123C1393.15 599.337 1402.92 588.833 1410.78 575.724L1414.33 577.845C1406.16 591.501 1395.91 602.489 1384.71 609.611Z" fill="white"/>
<path d="M1381.89 602.867L1380.23 599.086C1388.6 595.43 1392.97 592.447 1398.45 583.35L1402 585.472C1396.01 595.43 1390.76 599.023 1381.89 602.867Z" fill="white"/>
<path d="M824.156 843.795C808.085 834.53 801.656 825.832 794.051 810.979L797.727 809.088C804.954 823.206 811.047 831.463 826.215 840.202L824.156 843.774V843.795Z" fill="white"/>
<path d="M29.5804 482.423C13.2356 472.991 9.51702 465.701 2.7312 452.444L2.33203 451.646L6.00856 449.755L6.40773 450.553C13.0255 463.516 16.3659 470.007 31.6392 478.831L29.5804 482.402V482.423Z" fill="white"/>
<path d="M33.2979 476.688C20.8817 469.693 16.8481 463.264 12.1211 454.23L15.7766 452.318C20.7137 461.751 24.2641 466.877 35.3147 473.096L33.2769 476.688H33.2979Z" fill="white"/>
<path d="M476.378 662.274L474.666 666.042L794.214 811.198L795.926 807.43L476.378 662.274Z" fill="white"/>
<path d="M230.522 548.722L228.789 552.48L435.111 647.64L436.845 643.882L230.522 548.722Z" fill="white"/>
<path d="M16.2821 453.965L14.6152 457.753L189.354 534.64L191.021 530.852L16.2821 453.965Z" fill="white"/>
<path d="M796.785 697.129L792.646 697.17L793.77 810.128L797.909 810.087L796.785 697.129Z" fill="white"/>
<path d="M16.4198 342.933L12.2812 342.974L13.3851 455.911L17.5236 455.871L16.4198 342.933Z" fill="white"/>
<path d="M1383.3 605.696L823.691 840.473L825.293 844.289L1384.9 609.513L1383.3 605.696Z" fill="white"/>
<path d="M30.6188 478.334L28.9414 482.118L181.801 549.887L183.478 546.104L30.6188 478.334Z" fill="white"/>
<path d="M222.23 563.632L220.504 567.394L423.151 660.387L424.877 656.626L222.23 563.632Z" fill="white"/>
<path d="M466.645 676.231L464.928 679.997L825.219 844.267L826.936 840.501L466.645 676.231Z" fill="white"/>
<path d="M5.16001 330.081L1.02148 330.121L2.21241 451.966L6.35094 451.925L5.16001 330.081Z" fill="white"/>
<path d="M1402.52 588.366L1370.48 604.14L1372.31 607.853L1404.35 592.079L1402.52 588.366Z" fill="white"/>
<path d="M45.3988 482.802L25.1674 472.949L12.2891 467.424L13.9277 463.621L26.8901 469.188L47.2266 479.084L45.3988 482.802Z" fill="white"/>
<path d="M1403.18 440.805L1401.6 436.981C1409.31 433.788 1412.84 429.796 1412.08 425.09L1416.16 424.439C1416.91 429.145 1415.28 435.805 1403.18 440.805Z" fill="white"/>
<path d="M14.331 389.334C13.9948 389.186 13.6797 389.039 13.3646 388.871H13.1335V388.745C5.46527 384.922 1.01142 379.291 1.4316 373.829L5.54931 374.144C5.31821 377.338 8.46952 382.107 16.0327 385.552L17.2302 386.098V388.829L14.541 388.85L14.331 389.313V389.334Z" fill="white"/>
<path d="M14.4575 458.158C6.07501 454.355 1.70519 449.124 2.12537 443.431L6.24308 443.746C5.94895 447.527 9.56246 451.414 16.1592 454.397L14.4575 458.158Z" fill="white"/>
<path d="M1402.97 523.453L1401.39 519.63C1410 516.058 1411.1 511.604 1411.16 508.558L1415.3 508.642C1415.15 515.239 1411.12 520.071 1402.99 523.453H1402.97Z" fill="white"/>
<path d="M1400.09 586.942L1398.51 583.118C1405.97 580.03 1410.13 576.185 1410.21 572.257L1414.35 572.341C1414.27 576.332 1411.73 582.11 1400.11 586.921L1400.09 586.942Z" fill="white"/>
<path d="M1404.34 518.384L856.867 743.367L858.44 747.195L1405.92 522.212L1404.34 518.384Z" fill="white"/>
<path d="M828.717 752.343C817.645 752.343 806.679 750.495 798.527 746.797L800.229 743.037C815.313 749.885 840.713 750.033 856.848 743.352L858.423 747.175C850.062 750.642 839.347 752.343 828.696 752.343H828.717Z" fill="white"/>
<path d="M712.437 703.177L710.727 706.946L798.537 746.797L800.247 743.028L712.437 703.177Z" fill="white"/>
<path d="M624.55 667.994L520.431 620.577L507.805 614.863L509.506 611.081L522.133 616.816L626.273 664.233L624.55 667.994Z" fill="white"/>
<path d="M465.031 595.66L455.472 591.101L272.927 508.263L256.246 500.511L257.99 496.75L274.65 504.503L457.216 587.361L466.796 591.941L465.031 595.66Z" fill="white"/>
<path d="M160.987 452.495L159.273 456.262L214.903 481.567L216.617 477.8L160.987 452.495Z" fill="white"/>
<path d="M14.9958 385.041L13.25 388.794L79.2708 419.51L81.0166 415.757L14.9958 385.041Z" fill="white"/>
<path d="M499.601 531.808L495.463 531.843L495.564 543.629L499.702 543.593L499.601 531.808Z" fill="white"/>
<path d="M496.244 530.239L481.84 542.194L484.483 545.379L498.887 533.424L496.244 530.239Z" fill="white"/>
<path d="M519.927 544.021C519.633 544.021 519.36 543.958 519.066 543.832L496.713 533.685C495.683 533.222 495.221 531.983 495.683 530.953C496.145 529.924 497.385 529.462 498.414 529.924L520.768 540.071C521.797 540.533 522.259 541.773 521.797 542.802C521.461 543.559 520.705 544.021 519.906 544.021H519.927Z" fill="white"/>
<path d="M518.59 540.349L504.152 552.297L506.791 555.485L521.228 543.538L518.59 540.349Z" fill="white"/>
<path d="M506.339 552.033L504.629 555.802L520.45 562.982L522.16 559.214L506.339 552.033Z" fill="white"/>
<path d="M557.507 544.21C557.213 544.21 556.94 544.147 556.646 544.021L485.804 511.877C484.775 511.415 484.313 510.176 484.775 509.146C485.237 508.117 486.477 507.655 487.506 508.117L558.348 540.26C559.377 540.722 559.839 541.962 559.377 542.991C559.041 543.748 558.285 544.21 557.486 544.21H557.507Z" fill="white"/>
<path d="M484.996 508.755L466.064 535.533L469.444 537.922L488.376 511.144L484.996 508.755Z" fill="white"/>
<path d="M468.613 534.885L466.902 538.654L482.303 545.643L484.013 541.874L468.613 534.885Z" fill="white"/>
<path d="M505.721 591.626C500.238 591.626 495.889 588.139 494.04 582.277C491.036 572.655 495.469 559.483 504.145 552.298L506.771 555.491C499.418 561.584 495.469 573.054 497.969 581.059C499.25 585.155 502.065 587.508 505.7 587.508V591.647L505.721 591.626Z" fill="white"/>
<path d="M475.428 578.286C473.831 576.71 472.612 574.672 471.835 572.214C468.768 562.571 473.159 549.357 481.835 542.172L484.482 545.344C477.15 551.437 473.243 562.928 475.785 570.954C476.352 572.761 477.213 574.21 478.327 575.324L475.428 578.265V578.286Z" fill="white"/>
<path d="M558.098 602.72C558.098 602.72 557.951 602.72 557.867 602.72L521.417 598.854C520.282 598.728 519.463 597.72 519.589 596.585C519.715 595.451 520.723 594.631 521.858 594.757L558.308 598.623C559.443 598.749 560.262 599.757 560.136 600.892C560.031 601.963 559.127 602.741 558.077 602.741L558.098 602.72Z" fill="white"/>
<path d="M466.878 574.651C463.264 574.525 460.512 571.521 459.336 566.395C457.256 557.382 460.218 543.831 466.058 535.575L469.441 537.97C464.294 545.26 461.563 557.592 463.369 565.47C464.084 568.579 465.449 570.47 467.025 570.533L466.878 574.672V574.651Z" fill="white"/>
<path d="M521.437 598.833C514.693 598.119 509.294 594.169 506.962 588.244C503.012 578.16 509 565.156 520.345 559.231L522.256 562.887C512.74 567.866 507.592 578.559 510.807 586.732C512.571 591.249 516.605 594.169 521.857 594.715L521.416 598.833H521.437Z" fill="white"/>
<path d="M559.619 542.08L555.48 542.121L556.063 600.649L560.201 600.607L559.619 542.08Z" fill="white"/>
<path d="M556.571 540.31L520.359 559.242L522.277 562.909L558.489 543.978L556.571 540.31Z" fill="white"/>
<path d="M500.246 585.345L498.535 589.114L512.443 595.426L514.154 591.657L500.246 585.345Z" fill="white"/>
<path d="M496.537 578.6L494.826 582.369L507.586 588.16L509.297 584.391L496.537 578.6Z" fill="white"/>
<path d="M496.499 569.315L494.789 573.084L507.53 578.866L509.241 575.098L496.499 569.315Z" fill="white"/>
<path d="M500.052 559.666L498.342 563.435L512.192 569.721L513.903 565.952L500.052 559.666Z" fill="white"/>
<path d="M464.543 569.057L462.869 572.843L476.05 578.67L477.724 574.885L464.543 569.057Z" fill="white"/>
<path d="M462.003 562.975L460.293 566.744L472.651 572.352L474.362 568.584L462.003 562.975Z" fill="white"/>
<path d="M461.908 553.636L460.197 557.404L472.518 562.996L474.228 559.227L461.908 553.636Z" fill="white"/>
<path d="M464.306 543.459L462.596 547.228L476.026 553.322L477.736 549.554L464.306 543.459Z" fill="white"/>
<path d="M246.946 418.346L242.809 418.429L243.032 429.582L247.17 429.499L246.946 418.346Z" fill="white"/>
<path d="M301.831 485.406C301.831 485.406 301.684 485.406 301.6 485.406L267.167 481.751C266.032 481.625 265.213 480.616 265.339 479.482C265.465 478.347 266.473 477.528 267.608 477.654L302.041 481.309C303.176 481.435 303.995 482.444 303.869 483.578C303.764 484.65 302.861 485.427 301.81 485.427L301.831 485.406Z" fill="white"/>
<path d="M225.762 463.873C223.304 462.339 221.476 459.818 220.468 456.604C217.569 447.444 221.728 434.923 229.943 428.095L232.59 431.268C225.678 437.003 222.022 447.801 224.417 455.344C225.132 457.612 226.371 459.356 227.989 460.365L225.783 463.852L225.762 463.873Z" fill="white"/>
<path d="M251.646 475.008C246.877 474.63 243.074 471.31 241.456 466.121C238.599 456.982 242.822 444.482 251.036 437.675L253.663 440.869C246.751 446.583 243.032 457.381 245.385 464.903C246.52 468.516 248.852 470.659 251.961 470.89L251.625 475.008H251.646Z" fill="white"/>
<path d="M215.888 458.894C212.358 458.894 209.585 455.974 208.451 450.995C206.476 442.444 209.291 429.608 214.816 421.792L218.199 424.187C213.346 431.057 210.782 442.675 212.484 450.091C212.736 451.205 213.808 454.902 215.993 454.776L216.161 458.915C216.161 458.915 215.972 458.915 215.888 458.915V458.894Z" fill="white"/>
<path d="M264.668 426.37L251.023 437.661L253.662 440.85L267.306 429.558L264.668 426.37Z" fill="white"/>
<path d="M253.208 437.387L251.498 441.156L266.229 447.841L267.939 444.072L253.208 437.387Z" fill="white"/>
<path d="M301.288 430.133C300.994 430.133 300.72 430.07 300.426 429.944L233.513 399.565C232.484 399.103 232.022 397.863 232.484 396.834C232.946 395.804 234.186 395.342 235.215 395.804L302.128 426.183C303.157 426.645 303.62 427.885 303.157 428.914C302.821 429.67 302.065 430.133 301.267 430.133H301.288Z" fill="white"/>
<path d="M232.681 396.493L214.805 421.778L218.184 424.168L236.061 398.882L232.681 396.493Z" fill="white"/>
<path d="M217.339 421.103L215.629 424.872L230.398 431.575L232.108 427.806L217.339 421.103Z" fill="white"/>
<path d="M243.548 416.804L229.936 428.101L232.579 431.285L246.191 419.988L243.548 416.804Z" fill="white"/>
<path d="M265.993 430.048C265.698 430.048 265.425 429.985 265.131 429.859L244.017 420.279C242.988 419.817 242.526 418.578 242.988 417.548C243.45 416.519 244.69 416.057 245.719 416.519L266.833 426.099C267.862 426.561 268.324 427.8 267.862 428.83C267.526 429.586 266.77 430.048 265.971 430.048H265.993Z" fill="white"/>
<path d="M267.189 481.751C260.782 481.079 255.635 477.297 253.429 471.688C249.668 462.108 255.361 449.755 266.118 444.125L268.03 447.78C259.08 452.444 254.269 462.486 257.273 470.154C258.933 474.377 262.714 477.108 267.631 477.633L267.189 481.751Z" fill="white"/>
<path d="M303.389 428.015L299.25 428.056L299.8 483.348L303.939 483.307L303.389 428.015Z" fill="white"/>
<path d="M300.335 426.231L266.115 444.121L268.033 447.789L302.253 429.899L300.335 426.231Z" fill="white"/>
<path d="M213.519 453.374L211.809 457.143L224.779 463.029L226.49 459.26L213.519 453.374Z" fill="white"/>
<path d="M211.081 447.542L209.371 451.312L221.252 456.701L222.962 452.932L211.081 447.542Z" fill="white"/>
<path d="M211.005 438.801L209.295 442.569L221.156 447.952L222.866 444.184L211.005 438.801Z" fill="white"/>
<path d="M213.276 429.146L211.566 432.916L224.481 438.774L226.19 435.005L213.276 429.146Z" fill="white"/>
<path d="M247.429 468.817L245.719 472.585L258.651 478.455L260.362 474.686L247.429 468.817Z" fill="white"/>
<path d="M243.97 462.556L242.26 466.325L254.102 471.699L255.812 467.931L243.97 462.556Z" fill="white"/>
<path d="M243.898 453.772L242.188 457.541L254.01 462.907L255.721 459.138L243.898 453.772Z" fill="white"/>
<path d="M247.257 444.604L245.547 448.373L258.422 454.216L260.132 450.447L247.257 444.604Z" fill="white"/>
<path d="M265.946 479.607L223.465 553.305L227.051 555.372L269.531 481.674L265.946 479.607Z" fill="white"/>
<path d="M220.951 593.265C214.438 582.593 215.405 567.277 223.472 553.328L227.044 555.386C219.754 568.034 218.766 581.731 224.481 591.122L220.951 593.265Z" fill="white"/>
<path d="M517.456 594.531L453.748 691.407L457.206 693.681L520.914 596.805L517.456 594.531Z" fill="white"/>
<path d="M398.264 729.402C392.066 729.402 386.079 728.225 380.596 725.725L382.297 721.965C404.483 732.028 435.87 718.603 453.748 691.376L457.194 693.645C442.55 715.914 419.168 729.402 398.243 729.402H398.264Z" fill="white"/>
<path d="M201.504 638.578L199.77 642.335L380.59 725.771L382.324 722.013L201.504 638.578Z" fill="white"/>
<path d="M201.265 642.951C196.055 640.577 191.601 637.174 188.029 632.825L191.223 630.22C194.374 634.085 198.324 637.111 202.967 639.211L201.265 642.972V642.951Z" fill="white"/>
<path d="M495.408 582.903L438.727 680.058L442.301 682.144L498.983 584.989L495.408 582.903Z" fill="white"/>
<path d="M243.733 426.282L241.807 429.945L255.325 437.054L257.251 433.391L243.733 426.282Z" fill="white"/>
<path d="M243.579 469.343L207.094 541.012L210.782 542.889L247.268 471.221L243.579 469.343Z" fill="white"/>
<path d="M242.873 427.935L173.77 560.005L177.437 561.924L246.54 429.853L242.873 427.935Z" fill="white"/>
<path d="M188.681 633.413C165.718 620.219 159.311 588.664 173.765 559.987L177.462 561.836C166.033 584.526 166.811 616.06 190.761 629.82L188.702 633.413H188.681Z" fill="white"/>
<path d="M190.588 629.769L188.854 633.526L368.171 716.307L369.906 712.549L190.588 629.769Z" fill="white"/>
<path d="M385.092 719.843C379.209 719.843 373.474 718.687 368.18 716.292L369.881 712.532C392.004 722.574 422.256 708.33 438.727 680.094L442.299 682.174C428.643 705.578 405.869 719.843 385.092 719.843Z" fill="white"/>
<path d="M497.212 541.265L495.498 545.032L509.648 551.472L511.362 547.705L497.212 541.265Z" fill="white"/>
<path d="M436.942 647.489C436.585 647.489 436.228 647.405 435.913 647.216C434.925 646.648 434.589 645.367 435.156 644.4L494.569 542.193C495.136 541.206 496.418 540.869 497.384 541.437C498.372 542.004 498.708 543.285 498.141 544.252L438.728 646.459C438.35 647.111 437.656 647.489 436.942 647.489Z" fill="white"/>
<path d="M399.947 672.006C395.935 672.006 392.027 671.229 388.393 669.569L390.094 665.808C404.569 672.363 424.36 662.972 435.158 644.379L438.73 646.459C429.507 662.321 414.065 672.006 399.947 672.006Z" fill="white"/>
<path d="M219.162 588.251L217.451 592.02L388.385 669.594L390.095 665.826L219.162 588.251Z" fill="white"/>
<path d="M217.463 592.005C210.824 588.98 205.929 583.475 203.345 576.08C199.689 565.681 201.076 552.908 207.106 541.017L210.782 542.886C205.257 553.769 203.954 565.366 207.232 574.715C209.438 581.017 213.576 585.702 219.165 588.244L217.463 592.005Z" fill="white"/>
<path d="M644.572 563.37L641.904 560.219C647.85 555.198 655.665 554.505 663.942 558.244L662.241 562.005C655.497 558.937 649.236 559.421 644.572 563.37Z" fill="white"/>
<path d="M708.818 619.317C708.629 599.274 696.192 577.425 681.107 570.576L682.809 566.816C699.217 574.253 712.747 597.804 712.957 619.296L708.818 619.338V619.317Z" fill="white"/>
<path d="M709.719 660.851L709.32 656.733C709.194 656.733 709.068 656.817 709.047 656.859C709.047 656.859 709.194 656.67 709.173 656.124L713.312 656.082C713.333 658.687 711.862 660.641 709.719 660.83V660.851Z" fill="white"/>
<path d="M681.246 651.931L679.535 655.7L698.455 664.286L700.166 660.518L681.246 651.931Z" fill="white"/>
<path d="M700.225 664.653C699.637 664.653 699.028 664.527 698.439 664.254L700.141 660.493C700.141 660.493 699.973 660.577 699.91 660.661C699.91 660.661 700.057 660.451 700.036 659.926L704.175 659.884C704.175 661.733 703.482 663.245 702.242 664.065C701.633 664.464 700.939 664.653 700.225 664.653Z" fill="white"/>
<path d="M699.675 623.097C699.486 603.055 687.049 581.206 671.965 574.357L673.667 570.597C690.074 578.034 703.604 601.585 703.814 623.076L699.675 623.119V623.097Z" fill="white"/>
<path d="M623.688 588.622C623.562 576.689 627.554 567.214 634.634 562.593C640.306 558.895 647.47 558.706 654.802 562.025L653.101 565.786C647.008 563.034 641.42 563.118 636.903 566.059C631.042 569.883 627.722 578.097 627.827 588.58L623.688 588.622Z" fill="white"/>
<path d="M627.875 588.544L623.736 588.585L623.932 608.228L628.07 608.186L627.875 588.544Z" fill="white"/>
<path d="M712.988 619.25L708.85 619.292L709.216 656.118L713.355 656.077L712.988 619.25Z" fill="white"/>
<path d="M703.846 623.018L699.707 623.059L700.073 659.886L704.212 659.844L703.846 623.018Z" fill="white"/>
<path d="M654.794 562.012L653.084 565.78L671.947 574.341L673.657 570.572L654.794 562.012Z" fill="white"/>
<path d="M663.953 558.262L662.242 562.03L681.105 570.591L682.816 566.822L663.953 558.262Z" fill="white"/>
<path d="M680.839 659.736L679.129 663.505L707.749 676.493L709.459 672.725L680.839 659.736Z" fill="white"/>
<path d="M709.425 679.653C709.425 678.267 708.5 676.796 707.744 676.46L709.446 672.699C711.757 673.75 713.522 676.733 713.543 679.611L709.404 679.653H709.425Z" fill="white"/>
<path d="M701.483 727.175L699.529 723.54C705.958 720.095 709.719 711.439 709.613 700.41L713.752 700.368C713.878 713.141 709.403 722.91 701.483 727.175Z" fill="white"/>
<path d="M710.677 677.787L701.533 681.569L703.115 685.393L712.259 681.611L710.677 677.787Z" fill="white"/>
<path d="M704.445 683.347L700.307 683.388L700.513 704.122L704.651 704.081L704.445 683.347Z" fill="white"/>
<path d="M713.586 679.579L709.447 679.621L709.654 700.355L713.792 700.314L713.586 679.579Z" fill="white"/>
<path d="M656.374 718.463L654.664 722.232L673.527 730.793L675.237 727.024L656.374 718.463Z" fill="white"/>
<path d="M654.635 722.175C642.912 716.86 632.491 703.582 627.428 687.511L624.949 679.969L628.878 678.687L631.378 686.271C636.042 701.061 645.832 713.667 656.357 718.436L654.656 722.196L654.635 722.175Z" fill="white"/>
<path d="M683.647 733.1C680.391 733.1 676.966 732.323 673.5 730.747L675.202 726.986C681.294 729.739 686.883 729.654 691.399 726.713C697.261 722.89 700.58 714.675 700.475 704.192L704.614 704.15C704.74 716.083 700.748 725.558 693.668 730.18C690.685 732.134 687.282 733.1 683.647 733.1Z" fill="white"/>
<path d="M700.263 683.435C700.263 682.049 699.338 680.578 698.582 680.242L700.284 676.481C702.595 677.532 704.359 680.515 704.38 683.414L700.242 683.456L700.263 683.435Z" fill="white"/>
<path d="M680.955 667.721L679.244 671.49L698.604 680.277L700.315 676.508L680.955 667.721Z" fill="white"/>
<path d="M707.763 672.724L698.619 676.506L700.201 680.33L709.345 676.548L707.763 672.724Z" fill="white"/>
<path d="M709.634 656.544L700.49 660.326L702.072 664.15L711.216 660.368L709.634 656.544Z" fill="white"/>
<path d="M699.706 723.463L690.248 727.528L691.882 731.331L701.34 727.265L699.706 723.463Z" fill="white"/>
<path d="M656.42 709.339C654.403 709.339 652.302 708.835 650.201 707.806L652.008 704.087C655.075 705.579 657.953 705.579 660.348 704.066C664.025 701.755 666.168 696.251 666.105 689.381L670.244 689.339C670.328 697.658 667.449 704.465 662.575 707.553C660.706 708.73 658.626 709.339 656.441 709.339H656.42Z" fill="white"/>
<path d="M669.711 636.086L665.572 636.127L666.102 689.361L670.24 689.32L669.711 636.086Z" fill="white"/>
<path d="M665.558 636.165C665.474 627.53 663.835 621.186 661.293 619.547L663.52 616.06C668.499 619.232 669.633 628.707 669.696 636.123L665.558 636.165Z" fill="white"/>
<path d="M672.136 614.106C672.073 613.98 672.01 613.917 671.989 613.896C672.052 613.938 672.178 614.001 672.325 614.001L672.136 614.106ZM673.103 613.581L670.645 610.514C671.317 609.968 672.178 609.778 673.039 609.947C674.132 610.157 675.119 610.955 675.771 612.131L673.103 613.581Z" fill="white"/>
<path d="M661.106 709.949C658.375 709.949 655.518 709.549 652.598 708.709L653.732 704.738C660.833 706.755 667.535 705.915 672.094 702.427C675.938 699.507 677.934 694.99 677.871 689.381V689.276L678.081 686.713L682.199 687.049L682.01 689.423C682.052 696.251 679.426 702.028 674.615 705.705C670.938 708.499 666.253 709.949 661.106 709.949Z" fill="white"/>
<path d="M677.556 633.686C677.493 627.279 675.582 620.325 672.199 614.127L675.834 612.152C679.552 618.938 681.632 626.585 681.695 633.644L677.556 633.686Z" fill="white"/>
<path d="M681.724 633.614L677.586 633.655L678.116 686.889L682.254 686.848L681.724 633.614Z" fill="white"/>
<path d="M645.82 701.38L644.109 705.149L651.322 708.422L653.032 704.653L645.82 701.38Z" fill="white"/>
<path d="M644.086 705.095C632.867 700.011 623.624 683.939 623.477 669.296L627.615 669.254C627.741 682.448 635.914 696.839 645.809 701.335L644.107 705.095H644.086Z" fill="white"/>
<path d="M660.685 618.959C659.719 617.509 659.971 616.312 660.202 615.724C660.727 614.4 662.009 613.896 662.576 613.749L671.673 610.009L673.248 613.833L663.668 617.741C664.026 617.572 664.236 616.921 664.089 616.585L660.706 618.98L660.685 618.959Z" fill="white"/>
<path d="M622.953 616.06C622.869 608.224 625.432 601.795 629.991 598.455L632.449 601.795C628.983 604.337 627.029 609.526 627.092 616.039L622.953 616.081V616.06Z" fill="white"/>
<path d="M627.097 615.986L622.959 616.027L623.489 669.26L627.627 669.219L627.097 615.986Z" fill="white"/>
<path d="M647 586.477L645.289 590.245L646.686 590.879L648.397 587.111L647 586.477Z" fill="white"/>
<path d="M655.751 582.789L654.043 586.559L655.44 587.192L657.148 583.422L655.751 582.789Z" fill="white"/>
<path d="M629.949 600.702C629.886 594.379 632.049 589.315 635.894 586.815C639.045 584.778 642.974 584.652 646.966 586.458L645.264 590.219C642.554 589 640.096 589.021 638.163 590.282C635.537 592.005 634.045 595.786 634.108 600.66L629.97 600.702H629.949Z" fill="white"/>
<path d="M646.21 688.14C637.533 684.212 630.642 672.279 630.537 660.976L634.676 660.934C634.781 670.577 640.726 681.102 647.932 684.38L646.231 688.14H646.21Z" fill="white"/>
<path d="M653.12 690.032C651.355 690.032 649.485 689.612 647.615 688.75L649.317 684.99C652.027 686.208 654.485 686.208 656.418 684.927C659.044 683.204 660.536 679.422 660.473 674.548L664.611 674.506C664.674 680.83 662.51 685.893 658.666 688.393C657.006 689.486 655.094 690.032 653.098 690.032H653.12Z" fill="white"/>
<path d="M659.907 614.274C659.802 604.61 653.856 594.106 646.65 590.828L648.352 587.068C657.029 590.997 663.92 602.929 664.025 614.232L659.886 614.274H659.907Z" fill="white"/>
<path d="M664.074 614.21L659.936 614.251L660.535 674.522L664.674 674.481L664.074 614.21Z" fill="white"/>
<path d="M672.777 610.673L668.639 610.714L668.659 612.836L672.798 612.795L672.777 610.673Z" fill="white"/>
<path d="M634.127 600.622L629.988 600.663L630.588 660.934L634.726 660.893L634.127 600.622Z" fill="white"/>
<path d="M647.928 684.357L646.221 688.126L647.618 688.759L649.325 684.989L647.928 684.357Z" fill="white"/>
<path d="M646.967 586.606L644.74 583.118C647.871 581.101 651.778 580.996 655.749 582.803L654.047 586.564C651.358 585.345 648.921 585.345 646.967 586.606Z" fill="white"/>
<path d="M668.69 610.66C668.585 600.996 662.64 590.492 655.434 587.215L657.135 583.454C665.812 587.383 672.703 599.316 672.808 610.618L668.669 610.66H668.69Z" fill="white"/>
<path d="M645.57 582.674L636.775 586.312L638.357 590.136L647.152 586.499L645.57 582.674Z" fill="white"/>
<path d="M649.192 620.639C648.814 620.639 648.414 620.618 648.015 620.555L648.582 616.459C649.381 616.564 650.515 616.522 651.461 615.702C652.469 614.82 653.015 613.202 652.994 611.143C652.952 606.227 649.843 600.681 646.229 599.043C643.834 597.95 642.154 599.736 641.566 600.555L638.246 598.097C640.683 594.82 644.486 593.706 647.952 595.282C653.036 597.593 657.091 604.547 657.154 611.123C657.196 615.303 655.578 617.614 654.213 618.812C652.847 620.009 651.103 620.66 649.213 620.66L649.192 620.639Z" fill="white"/>
<path d="M649.043 620.66C647.446 620.66 645.786 620.303 644.274 619.61C639.652 617.509 635.975 611.206 635.912 605.261L640.051 605.219C640.093 609.547 642.803 614.4 645.975 615.849C647.173 616.395 648.538 616.627 649.736 616.479L650.198 620.576C649.82 620.618 649.421 620.639 649.043 620.639V620.66Z" fill="white"/>
<path d="M635.913 605.261C635.871 601.501 637.552 598.98 638.539 597.803L641.69 600.492C641.06 601.228 640.031 602.803 640.052 605.219L635.913 605.261Z" fill="white"/>
<path d="M98.4259 324.626L95.7578 321.475C101.241 316.853 108.447 316.202 116.073 319.647L114.372 323.408C108.3 320.656 102.628 321.076 98.4259 324.626Z" fill="white"/>
<path d="M156.81 375.572C156.621 357.336 145.318 337.441 131.6 331.222L133.301 327.462C148.344 334.29 160.739 355.845 160.928 375.53L156.789 375.572H156.81Z" fill="white"/>
<path d="M157.816 413.682L157.417 409.565C157.228 409.565 157.081 409.712 157.039 409.754C157.06 409.712 157.123 409.523 157.123 409.187L161.262 409.145C161.283 411.603 159.875 413.472 157.816 413.661V413.682Z" fill="white"/>
<path d="M131.855 405.182L130.145 408.951L147.42 416.791L149.13 413.022L131.855 405.182Z" fill="white"/>
<path d="M149.12 417.149C148.552 417.149 147.985 417.023 147.418 416.771L149.12 413.01C149.12 413.01 148.763 413.095 148.678 413.221C148.699 413.179 148.763 412.989 148.763 412.653L152.901 412.611C152.901 414.355 152.25 415.805 151.052 416.582C150.464 416.96 149.813 417.149 149.12 417.149Z" fill="white"/>
<path d="M148.447 379.039C148.258 360.804 136.955 340.908 123.236 334.69L124.938 330.929C139.98 337.757 152.375 359.312 152.565 378.997L148.426 379.039H148.447Z" fill="white"/>
<path d="M79.0764 347.546C78.9714 336.58 82.6479 327.882 89.1606 323.638C94.3918 320.235 100.989 320.046 107.732 323.113L106.031 326.874C100.526 324.374 95.4842 324.458 91.4085 327.105C86.1143 330.55 83.1101 338.008 83.2151 347.525L79.0764 347.567V347.546Z" fill="white"/>
<path d="M83.2205 347.499L79.082 347.54L79.2605 365.481L83.399 365.439L83.2205 347.499Z" fill="white"/>
<path d="M160.957 375.527L156.818 375.568L157.153 409.18L161.291 409.139L160.957 375.527Z" fill="white"/>
<path d="M152.611 378.992L148.473 379.033L148.807 412.645L152.946 412.604L152.611 378.992Z" fill="white"/>
<path d="M107.744 323.112L106.033 326.88L123.27 334.703L124.98 330.934L107.744 323.112Z" fill="white"/>
<path d="M116.076 319.63L114.365 323.399L131.602 331.222L133.312 327.453L116.076 319.63Z" fill="white"/>
<path d="M131.497 412.296L129.787 416.064L155.92 427.924L157.63 424.155L131.497 412.296Z" fill="white"/>
<path d="M157.354 430.679C157.354 429.502 156.556 428.2 155.926 427.927L157.627 424.166C159.791 425.153 161.451 427.948 161.472 430.658L157.333 430.7L157.354 430.679Z" fill="white"/>
<path d="M150.382 474.23L148.428 470.595C154.226 467.486 157.63 459.65 157.546 449.649L161.684 449.607C161.81 461.351 157.693 470.322 150.403 474.251L150.382 474.23Z" fill="white"/>
<path d="M158.602 428.781L150.254 432.233L151.836 436.058L160.184 432.605L158.602 428.781Z" fill="white"/>
<path d="M153.178 434.091L149.039 434.132L149.228 453.081L153.366 453.04L153.178 434.091Z" fill="white"/>
<path d="M161.527 430.625L157.389 430.667L157.577 449.615L161.716 449.574L161.527 430.625Z" fill="white"/>
<path d="M109.13 465.927L107.42 469.696L124.657 477.518L126.367 473.75L109.13 465.927Z" fill="white"/>
<path d="M107.439 469.671C96.7033 464.796 87.1443 452.632 82.5014 437.905L80.2324 431.014L84.1611 429.733L86.43 436.645C90.6738 450.09 99.5815 461.582 109.14 465.91L107.439 469.671Z" fill="white"/>
<path d="M133.994 479.649C131.011 479.649 127.859 478.935 124.666 477.485L126.368 473.725C131.872 476.225 136.914 476.141 140.99 473.494C146.284 470.048 149.288 462.59 149.183 453.073L153.322 453.031C153.427 463.998 149.75 472.695 143.238 476.939C140.486 478.746 137.334 479.628 133.994 479.628V479.649Z" fill="white"/>
<path d="M148.993 434.145C148.993 432.968 148.195 431.665 147.564 431.392L149.266 427.632C151.43 428.619 153.09 431.413 153.111 434.124L148.972 434.166L148.993 434.145Z" fill="white"/>
<path d="M131.611 419.621L129.9 423.39L147.577 431.412L149.288 427.643L131.611 419.621Z" fill="white"/>
<path d="M155.963 424.147L147.615 427.6L149.197 431.425L157.545 427.972L155.963 424.147Z" fill="white"/>
<path d="M157.649 409.375L149.301 412.828L150.883 416.652L159.231 413.199L157.649 409.375Z" fill="white"/>
<path d="M148.908 470.336L138.92 474.603L140.546 478.409L150.534 474.142L148.908 470.336Z" fill="white"/>
<path d="M109.141 457.948C107.271 457.948 105.318 457.486 103.385 456.54L105.192 452.822C107.923 454.145 110.507 454.145 112.629 452.822C115.927 450.742 117.86 445.784 117.797 439.565L121.935 439.523C122.02 447.171 119.351 453.452 114.856 456.309C113.112 457.402 111.179 457.969 109.162 457.969L109.141 457.948Z" fill="white"/>
<path d="M121.471 390.92L117.332 390.961L117.816 439.573L121.954 439.532L121.471 390.92Z" fill="white"/>
<path d="M117.293 390.973C117.209 383.158 115.759 377.401 113.49 375.952L115.717 372.464C120.318 375.406 121.369 384.124 121.453 390.931L117.314 390.973H117.293Z" fill="white"/>
<path d="M123.32 370.909L123.215 370.762C123.257 370.804 123.32 370.825 123.404 370.867L123.32 370.909ZM124.371 370.342L122.018 367.401C122.669 366.876 123.53 366.666 124.35 366.834C125.4 367.044 126.345 367.8 126.955 368.913L124.371 370.321V370.342Z" fill="white"/>
<path d="M113.403 458.516C110.882 458.516 108.256 458.138 105.588 457.382L106.722 453.411C113.151 455.239 119.202 454.483 123.34 451.331C126.807 448.684 128.592 444.629 128.55 439.566V439.461L128.74 437.129L132.857 437.466L132.689 439.629C132.731 445.911 130.294 451.226 125.861 454.63C122.479 457.214 118.151 458.537 113.424 458.537L113.403 458.516Z" fill="white"/>
<path d="M128.257 388.704C128.194 382.884 126.471 376.561 123.383 370.93L127.017 368.956C130.421 375.174 132.333 382.191 132.396 388.662L128.257 388.704Z" fill="white"/>
<path d="M132.412 388.647L128.273 388.688L128.759 437.531L132.898 437.49L132.412 388.647Z" fill="white"/>
<path d="M99.5033 450.291L97.793 454.06L104.374 457.047L106.084 453.278L99.5033 450.291Z" fill="white"/>
<path d="M97.7961 454.062C87.5018 449.377 78.9932 434.65 78.8672 421.205L83.0059 421.163C83.132 433.159 90.527 446.226 99.5188 450.302L97.8171 454.062H97.7961Z" fill="white"/>
<path d="M112.877 375.363C111.932 373.977 112.184 372.821 112.415 372.254C112.856 371.183 113.843 370.573 114.705 370.342L122.982 366.939L124.558 370.763L115.776 374.334C115.902 374.292 116.133 374.124 116.259 373.767C116.386 373.389 116.323 373.095 116.259 373.01L112.856 375.363H112.877Z" fill="white"/>
<path d="M78.4038 372.611C78.3408 365.384 80.6938 359.481 84.8955 356.393L87.3325 359.733C84.2232 362.023 82.4585 366.708 82.5215 372.59L78.3828 372.632L78.4038 372.611Z" fill="white"/>
<path d="M82.5467 372.568L78.4082 372.609L78.8916 421.2L83.0301 421.158L82.5467 372.568Z" fill="white"/>
<path d="M100.56 345.408L98.8496 349.177L100.131 349.759L101.842 345.99L100.56 345.408Z" fill="white"/>
<path d="M108.594 342.088L106.887 345.858L108.169 346.439L109.877 342.669L108.594 342.088Z" fill="white"/>
<path d="M84.7886 358.577C84.7256 352.737 86.7424 348.052 90.2929 345.741C93.2131 343.829 96.8686 343.724 100.566 345.405L98.8644 349.165C96.4484 348.073 94.2635 348.094 92.5408 349.207C90.1878 350.741 88.8643 354.145 88.9063 358.535L84.7676 358.577H84.7886Z" fill="white"/>
<path d="M99.746 438.579C91.7627 434.965 85.439 423.998 85.334 413.62L89.4727 413.578C89.5567 422.192 95.04 431.919 101.469 434.818L99.767 438.579H99.746Z" fill="white"/>
<path d="M106.113 440.344C104.474 440.344 102.752 439.944 101.008 439.167L102.71 435.407C105.126 436.499 107.31 436.499 109.033 435.365C111.386 433.831 112.71 430.427 112.668 426.037L116.806 425.995C116.869 431.835 114.853 436.52 111.302 438.831C109.747 439.839 107.983 440.344 106.113 440.344Z" fill="white"/>
<path d="M112.123 370.994C112.039 362.38 106.556 352.653 100.127 349.754L101.829 345.994C109.812 349.607 116.136 360.574 116.241 370.952L112.102 370.994H112.123Z" fill="white"/>
<path d="M116.287 370.95L112.148 370.991L112.696 426.031L116.835 425.99L116.287 370.95Z" fill="white"/>
<path d="M124.303 367.639L120.164 367.68L120.183 369.612L124.321 369.572L124.303 367.639Z" fill="white"/>
<path d="M88.9393 358.534L84.8008 358.575L85.3484 413.615L89.4869 413.574L88.9393 358.534Z" fill="white"/>
<path d="M101.451 434.815L99.7402 438.583L101.022 439.165L102.732 435.396L101.451 434.815Z" fill="white"/>
<path d="M100.608 345.867L98.3809 342.38C101.301 340.51 104.915 340.405 108.612 342.086L106.91 345.846C104.515 344.754 102.352 344.754 100.629 345.846L100.608 345.867Z" fill="white"/>
<path d="M120.148 367.674C120.064 359.061 114.56 349.334 108.152 346.434L109.854 342.674C117.837 346.287 124.161 357.254 124.266 367.632L120.127 367.674H120.148Z" fill="white"/>
<path d="M99.1468 341.953L91.1289 345.269L92.7107 349.094L100.729 345.777L99.1468 341.953Z" fill="white"/>
<path d="M102.542 376.981C102.185 376.981 101.806 376.96 101.449 376.897L102.017 372.8C102.71 372.884 103.697 372.863 104.496 372.149C105.378 371.372 105.861 369.943 105.84 368.136C105.798 363.703 103.004 358.724 99.7686 357.233C97.6887 356.287 96.2391 357.842 95.7139 358.556L92.3945 356.098C94.6635 353.031 98.235 352.001 101.47 353.472C106.176 355.615 109.916 362.023 109.979 368.094C110.021 371.981 108.508 374.145 107.227 375.258C105.945 376.393 104.306 376.981 102.542 376.981Z" fill="white"/>
<path d="M102.396 377.002C100.905 377.002 99.3712 376.666 97.9636 376.035C93.6779 374.082 90.2954 368.262 90.2324 362.779L94.3711 362.737C94.4132 366.623 96.8502 370.993 99.6864 372.275C100.758 372.758 101.976 372.968 103.027 372.842L103.489 376.939C103.132 376.981 102.775 377.002 102.417 377.002H102.396Z" fill="white"/>
<path d="M90.2326 362.758C90.2116 359.249 91.7453 356.917 92.6907 355.825L95.821 358.514C95.2747 359.165 94.3503 360.552 94.3714 362.716L90.2326 362.758Z" fill="white"/>
<path d="M1001.99 522.529C999.407 485.722 972.852 474.188 971.717 473.705L204.289 154.96L205.865 151.137L973.293 469.86C973.587 469.986 1003.31 482.781 1006.11 522.214L1001.99 522.508V522.529Z" fill="white"/>
<path d="M851.189 584.967C849.824 565.66 842.219 552.677 836.084 545.198C829.403 537.067 822.954 533.454 822.891 533.412L824.886 529.798C826.021 530.408 852.534 545.408 855.307 584.694L851.189 584.988V584.967Z" fill="white"/>
<path d="M823.269 591.943C814.13 591.943 803.415 590.115 791.65 584.737L793.373 580.976C810.957 589.022 826.105 588.434 835.706 586.522C846.147 584.442 852.513 580.388 852.576 580.346L854.824 583.812C854.088 584.295 841.987 591.943 823.269 591.943Z" fill="white"/>
<path d="M824.488 579.778C815.013 579.778 803.794 577.803 791.504 571.837L793.311 568.118C810.706 576.564 825.853 576.312 835.496 574.61C845.98 572.761 852.429 568.853 852.492 568.811L854.656 572.32C853.921 572.761 842.324 579.757 824.467 579.757L824.488 579.778Z" fill="white"/>
<path d="M825.286 817.934C816.043 817.934 805.181 816.085 793.248 810.644L794.971 806.883C812.576 814.95 827.744 814.446 837.366 812.597C847.829 810.602 854.215 806.631 854.278 806.589L856.484 810.076C855.749 810.539 843.795 817.913 825.286 817.913V817.934Z" fill="white"/>
<path d="M824.719 543.706C820.392 543.706 815.266 542.803 809.656 539.988L811.505 536.29C825.203 543.139 835.539 537.172 835.959 536.92L838.081 540.471C837.745 540.66 832.577 543.706 824.698 543.706H824.719Z" fill="white"/>
<path d="M825.79 833.564C819.403 833.564 811.945 831.988 804.172 827.072L806.378 823.584C825.475 835.643 842.366 825.37 843.08 824.929L845.286 828.437C844.782 828.753 836.925 833.564 825.79 833.564Z" fill="white"/>
<path d="M1152.81 461.058C1150.23 424.335 1119.3 413.179 1117.98 412.717L355.49 103.342L357.045 99.5186L1119.45 408.851C1119.7 408.935 1154.16 421.246 1156.95 460.764L1152.83 461.058H1152.81Z" fill="white"/>
<path d="M1281.53 408.809C1279.37 377.989 1263.49 364.984 1254.18 359.984L487.99 57.8998L489.503 54.0552L1255.92 356.224L1256.03 356.287C1280.36 369.396 1284.85 397.191 1285.65 408.515L1281.53 408.809Z" fill="white"/>
<path d="M1405.31 365.321L1401.2 364.985C1403.97 330.426 1370.9 316.812 1369.49 316.245L1371.03 312.4C1371.41 312.547 1408.34 327.674 1405.31 365.3V365.321Z" fill="white"/>
<path d="M1392.21 369.984L1388.09 369.648C1390.86 335.068 1358.87 321.244 1357.5 320.677L1359.1 316.853C1359.46 317 1395.23 332.357 1392.23 369.963L1392.21 369.984Z" fill="white"/>
<path d="M1416.7 365.09L1412.56 365.026C1413.19 325.719 1386.41 314.753 1385.25 314.311L1386.74 310.467C1387.06 310.593 1417.35 322.82 1416.68 365.111L1416.7 365.09Z" fill="white"/>
<path d="M795.704 584.819L791.586 584.483C795.01 542.172 820.914 530.029 822.007 529.524L823.708 533.285C823.456 533.39 798.918 545.05 795.704 584.798V584.819Z" fill="white"/>
<path d="M141.516 301.685L137.398 301.349C139.184 279.269 147.861 265.928 154.836 258.638C162.462 250.655 169.668 247.987 169.983 247.882L698.122 57.0806L699.529 60.9672L171.391 251.79C170.319 252.189 144.73 262.042 141.516 301.706V301.685Z" fill="white"/>
<path d="M287.084 363.43L282.967 363.094C284.753 341.014 293.429 327.673 300.404 320.383C308.03 312.4 315.236 309.732 315.551 309.627L838.123 112.712L839.572 116.578L316.98 313.513C315.866 313.913 290.299 323.766 287.084 363.43Z" fill="white"/>
<path d="M449.61 431.877L445.492 431.541C447.278 409.461 455.955 396.12 462.929 388.83C470.556 380.847 477.762 378.179 478.077 378.074L1006.3 178.428L1007.77 182.293L479.526 381.96C478.413 382.359 452.845 392.213 449.631 431.877H449.61Z" fill="white"/>
<path d="M616.313 505.638L612.195 505.302C615.62 462.885 643.582 452.276 644.78 451.835L1175 244.311L1176.51 248.155L646.25 455.7C645.116 456.121 619.548 465.974 616.334 505.638H616.313Z" fill="white"/>
<path d="M11.346 250.193C10.4426 228.344 19.7705 214.961 27.7748 207.587C36.4304 199.604 45.2121 196.831 45.5903 196.705L46.8088 200.654C45.4642 201.074 13.8881 211.369 15.4847 250.025L11.346 250.193Z" fill="white"/>
<path d="M24.1817 251.811C22.438 209.772 60.1277 201.159 60.5058 201.075L61.3672 205.108C59.9596 205.424 26.7028 213.134 28.2994 251.643L24.1607 251.811H24.1817Z" fill="white"/>
<path d="M0.0635506 245.95C-0.776799 223.555 8.04687 210.109 15.61 202.777C23.8244 194.815 32.2069 192.189 32.5641 192.083L33.7616 196.033C32.501 196.432 2.66863 206.075 4.18126 245.782L0.0425419 245.929L0.0635506 245.95Z" fill="white"/>
<path d="M1007.12 520.787L1002.98 520.816L1004.61 748.608L1008.75 748.579L1007.12 520.787Z" fill="white"/>
<path d="M1156.78 461.527L1152.64 461.542L1153.51 688.12L1157.65 688.104L1156.78 461.527Z" fill="white"/>
<path d="M1285.23 405.488L1281.09 405.529L1283.35 632.349L1287.48 632.308L1285.23 405.488Z" fill="white"/>
</g>
<defs>
<clipPath id="clip0_550_227">
<rect width="1416.87" height="844.32" fill="white"/>
</clipPath>
</defs>
</svg>
