<svg width="1920" height="232" viewBox="0 0 1920 232" fill="none" xmlns="http://www.w3.org/2000/svg">
<g clip-path="url(#clip0_932_1071)">
<path d="M236.09 436.348C202.183 453.887 159.507 458.563 129.107 458.563C16.8626 458.563 -37.5058 377.888 -37.5058 238.167C-37.5058 107.799 33.2316 13.6778 130.861 13.6778C156.584 13.6778 175.291 20.1085 188.152 20.1085C201.598 20.1085 209.783 14.847 213.29 1.98564L226.152 0.81644L240.182 138.199L227.321 141.707C205.691 73.8923 165.353 34.139 118 34.139C58.9543 34.139 23.8779 96.6919 23.8779 201.921C23.8779 340.473 65.9695 436.933 137.292 436.933C184.645 436.933 221.475 400.687 237.259 329.95L250.121 332.288L236.09 436.348ZM511.189 469.671C506.512 456.225 499.497 452.133 482.543 452.133H276.761V441.025C325.284 436.933 326.453 436.933 326.453 386.657V84.9998C326.453 34.7236 325.284 34.7236 276.761 30.6314V19.5239H432.851V30.6314C384.329 34.7236 383.16 34.7236 383.16 84.9998V392.503C383.16 438.687 389.59 438.687 432.267 438.687C482.543 438.687 507.681 411.795 533.404 339.304L546.265 342.227L523.465 471.425L511.189 469.671ZM606.196 84.9998C606.196 34.7236 605.027 34.7236 556.505 30.6314V19.5239H712.01V30.6314C663.488 34.139 662.903 34.7236 662.903 84.9998V386.657C662.903 436.933 664.072 436.933 712.595 441.025V452.133H557.089V441.025C605.612 437.518 606.196 436.933 606.196 386.657V84.9998ZM991.379 348.073L968.579 471.425L956.303 469.671C951.626 456.225 944.611 452.133 927.657 452.133H730.06V441.025C778.582 436.933 779.752 436.933 779.752 386.657V84.9998C779.752 34.7236 778.582 34.7236 730.06 30.6314V19.5239H918.888C934.088 19.5239 941.688 16.0162 945.78 1.98564L958.641 0.81644L969.164 108.969L956.303 112.476C931.165 42.9081 925.319 32.9698 883.227 32.9698C837.043 32.9698 836.458 32.9698 836.458 79.1537V248.105L932.918 244.597V263.305H836.458V392.503C836.458 438.687 842.889 438.687 883.227 438.687C929.995 438.687 951.041 422.318 978.518 345.15L991.379 348.073ZM1130.23 452.133H1010.97V441.025C1052.48 437.518 1060.08 428.164 1060.08 386.657V106.63C1060.08 55.1849 1041.37 34.139 1010.97 30.6314V19.5239H1096.91L1306.78 340.473V96.6919C1306.78 49.9234 1295.09 33.5544 1257.68 30.6314V19.5239H1376.94V30.6314C1339.52 34.139 1327.24 50.508 1327.24 96.6919V452.133H1306.78V450.964L1080.54 105.461V386.657C1080.54 428.164 1088.73 436.933 1130.23 441.025V452.133ZM1625.58 452.133H1457.8V441.025C1512.17 436.348 1513.34 436.933 1513.34 386.657V32.9698H1488.78C1442.02 32.9698 1420.97 49.3388 1393.49 126.507L1380.63 123.584L1397.58 0.231806L1410.45 1.98564C1415.12 15.4316 1422.14 19.5239 1438.51 19.5239H1644.87C1661.24 19.5239 1668.26 15.4316 1672.93 1.98564L1685.8 0.231806L1702.75 123.584L1689.89 126.507C1662.41 49.3388 1641.37 32.9698 1594.6 32.9698H1570.04V386.657C1570.04 436.933 1571.21 436.348 1625.58 441.025V452.133ZM1837.78 457.979C1798.61 457.979 1781.07 443.948 1769.96 443.948C1761.78 443.948 1754.76 449.794 1749.5 468.502H1736.64L1727.28 321.181L1740.15 317.673C1759.44 398.934 1792.18 437.518 1841.87 437.518C1884.54 437.518 1914.94 408.287 1914.94 366.78C1914.94 262.72 1731.38 257.459 1731.38 131.184C1731.38 63.3694 1782.24 13.6778 1845.38 13.6778C1873.44 13.6778 1888.64 23.0315 1897.99 23.0315C1907.34 23.0315 1912.61 17.77 1915.53 1.98564L1928.39 0.81644L1941.25 138.199L1928.39 141.707C1907.93 69.8 1878.11 34.139 1837.78 34.139C1804.45 34.139 1779.31 65.7078 1779.31 104.292C1779.31 206.598 1961.13 206.598 1961.13 341.058C1961.13 410.626 1909.68 457.979 1837.78 457.979Z" fill="white"/>
</g>
<defs>
<clipPath id="clip0_932_1071">
<rect width="2039.75" height="231.717" fill="white" transform="translate(-59.373)"/>
</clipPath>
</defs>
</svg>
